<svg width="400" height="600" viewBox="0 0 400 600" fill="none" xmlns="http://www.w3.org/2000/svg">
  <rect width="400" height="600" fill="#F3F4F6"/> <g transform="translate(100, 150) scale(0.6)">
    <path d="M0 0H500V500H0V0Z" fill="none"/>
    <path d="M475.21 161.85C475.21 161.85 499.76 168.32 499.76 195.14C499.76 221.96 475.21 228.43 475.21 228.43L475.21 161.85ZM33.56 161.85C33.56 161.85 9 168.32 9 195.14C9 221.96 33.56 228.43 33.56 228.43V161.85ZM254.33 133.45C254.33 133.45 272.71 138.29 272.71 158.42C272.71 178.55 254.33 183.39 254.33 183.39L254.33 133.45ZM244.75 228.43L244.75 183.39L244.75 133.45C244.75 133.45 226.37 138.29 226.37 158.42C226.37 178.55 244.75 183.39 244.75 183.39V228.43L244.75 228.43Z" fill="#F44336"/>
    <path d="M226.37 158.42C226.37 178.55 244.75 183.39 244.75 183.39C244.75 183.39 244.75 133.45 244.75 133.45C244.75 133.45 226.37 138.29 226.37 158.42Z" fill="#B71C1C"/>
    <path d="M475.21 228.43C475.21 228.43 499.76 221.96 499.76 195.14C499.76 168.32 475.21 161.85 475.21 161.85V228.43ZM254.33 183.39C254.33 183.39 272.71 178.55 272.71 158.42C272.71 138.29 254.33 133.45 254.33 133.45V183.39ZM244.75 228.43V183.39C244.75 183.39 226.37 178.55 226.37 158.42C226.37 138.29 244.75 133.45 244.75 133.45V228.43ZM33.56 228.43C33.56 228.43 9 221.96 9 195.14C9 168.32 33.56 161.85 33.56 161.85V228.43Z" stroke="#000000" strokeWidth="18" strokeLinecap="round" strokeLinejoin="round"/>
    <path d="M475.21 195.14C475.21 195.14 479.52 195.4 479.52 199.36C479.52 203.32 475.21 203.58 475.21 203.58V195.14ZM33.56 195.14C33.56 195.14 29.25 195.4 29.25 199.36C29.25 203.32 33.56 203.58 33.56 203.58V195.14ZM254.33 158.42C254.33 158.42 257.48 158.6 257.48 161.32C257.48 164.04 254.33 164.22 254.33 164.22V158.42ZM244.75 199.19L244.75 164.22C244.75 164.22 241.6 164.04 241.6 161.32C241.6 158.6 244.75 158.42 244.75 158.42V199.19Z" fill="#FFFFFF"/>
    <path d="M244.75 158.42C244.75 158.42 241.6 158.6 241.6 161.32C241.6 164.04 244.75 164.22 244.75 164.22C244.75 164.22 254.33 164.22 254.33 164.22C254.33 164.22 257.48 164.04 257.48 161.32C257.48 158.6 254.33 158.42 254.33 158.42C254.33 158.42 244.75 158.42 244.75 158.42Z" fill="#F44336"/>
    <path d="M244.75 199.19C244.75 199.19 241.6 199.36 241.6 202.09C241.6 204.81 244.75 204.99 244.75 204.99C244.75 204.99 254.33 204.99 254.33 204.99C254.33 204.99 257.48 204.81 257.48 202.09C257.48 199.36 254.33 199.19 254.33 199.19C254.33 199.19 244.75 199.19 244.75 199.19Z" fill="#F44336"/>
    <path d="M475.21 195.14C475.21 195.14 479.52 195.4 479.52 199.36C479.52 203.32 475.21 203.58 475.21 203.58C475.21 203.58 475.21 195.14 475.21 195.14ZM33.56 195.14C33.56 195.14 29.25 195.4 29.25 199.36C29.25 203.32 33.56 203.58 33.56 203.58C33.56 203.58 33.56 195.14 33.56 195.14Z" fill="#F44336"/>
    <path d="M475.21 195.14L475.21 203.58L33.56 203.58L33.56 195.14L475.21 195.14ZM254.33 158.42L254.33 164.22L244.75 164.22L244.75 158.42L254.33 158.42ZM254.33 199.19L254.33 204.99L244.75 204.99L244.75 199.19L254.33 199.19Z" stroke="#000000" strokeWidth="18" strokeLinecap="round" strokeLinejoin="round"/>
    <path d="M475.21 195.14C475.21 195.14 479.52 195.4 479.52 199.36C479.52 203.32 475.21 203.58 475.21 203.58L475.21 195.14ZM254.33 158.42C254.33 158.42 257.48 158.6 257.48 161.32C257.48 164.04 254.33 164.22 254.33 164.22L254.33 158.42ZM244.75 199.19L244.75 164.22C244.75 164.22 241.6 164.04 241.6 161.32C241.6 158.6 244.75 158.42 244.75 158.42V199.19ZM33.56 195.14C33.56 195.14 29.25 195.4 29.25 199.36C29.25 203.32 33.56 203.58 33.56 203.58L33.56 195.14Z" stroke="#000000" strokeWidth="18" strokeLinecap="round" strokeLinejoin="round"/>
    <path d="M254.33 204.99C254.33 204.99 257.48 204.81 257.48 202.09C257.48 199.36 254.33 199.19 254.33 199.19L254.33 204.99ZM244.75 164.22L244.75 199.19C244.75 199.19 241.6 199.36 241.6 202.09C241.6 204.81 244.75 204.99 244.75 204.99L244.75 164.22Z" stroke="#000000" strokeWidth="18" strokeLinecap="round" strokeLinejoin="round"/>
    <path d="M244.75 164.22L244.75 199.19L254.33 199.19L254.33 164.22L244.75 164.22Z" fill="#B71C1C"/>
  </g>

  <text x="200" y="480" font-family="serif" font-size="36" font-weight="bold" fill="#2563EB" text-anchor="middle">
    The Chapter House
  </text>
</svg>